<svg width="180" height="180" viewBox="0 0 180 180" fill="none" xmlns="http://www.w3.org/2000/svg" role="img" aria-labelledby="title desc">
  <title id="title">SendaDocs Isotipo</title>
  <desc id="desc">Isotipo de SendaDocs con documento, ruta de workflow, nodos y validación.</desc>

  <g transform="translate(25 15)">
    <path d="M20 0H97L132 35V130C132 141.046 123.046 150 112 150H20C8.954 150 0 141.046 0 130V20C0 8.954 8.954 0 20 0Z" fill="#003B73"/>
    <path d="M97 0V23C97 29.627 102.373 35 109 35H132L97 0Z" fill="#0A84FF"/>
    <path d="M97 0V23C97 29.627 102.373 35 109 35H132" stroke="#FFFFFF" stroke-width="8" stroke-linecap="round" stroke-linejoin="round"/>

    <path d="M34 42H70C84 42 90 53 90 65C90 77 80 84 68 84H46C32 84 26 95 26 108C26 122 38 128 52 128H94" stroke="#FFFFFF" stroke-width="11" stroke-linecap="round" stroke-linejoin="round"/>

    <circle cx="32" cy="42" r="16" fill="#003B73" stroke="#FFFFFF" stroke-width="9"/>
    <circle cx="90" cy="65" r="16" fill="#003B73" stroke="#FFFFFF" stroke-width="9"/>
    <circle cx="26" cy="108" r="16" fill="#003B73" stroke="#FFFFFF" stroke-width="9"/>

    <circle cx="114" cy="122" r="31" fill="#FFFFFF"/>
    <circle cx="114" cy="122" r="25" fill="#22A447"/>
    <path d="M101 121L110 130L128 110" stroke="#FFFFFF" stroke-width="8" stroke-linecap="round" stroke-linejoin="round"/>
  </g>
</svg>
